<?xml version="1.0" standalone="no"?>
<!DOCTYPE svg PUBLIC "-//W3C//DTD SVG 20010904//EN"
 "http://www.w3.org/TR/2001/REC-SVG-20010904/DTD/svg10.dtd">
<svg version="1.0" xmlns="http://www.w3.org/2000/svg"
 width="820.000000pt" height="860.000000pt" viewBox="0 0 820.000000 860.000000"
 preserveAspectRatio="xMidYMid meet">

<g transform="translate(0.000000,860.000000) scale(0.100000,-0.100000)"
fill="#000000" stroke="none">
<path d="M6350 8157 c-158 -47 2 107 -2798 -2691 -1426 -1425 -2603 -2607
-2616 -2626 -22 -32 -797 -2338 -812 -2417 -7 -36 10 -95 39 -137 21 -30 107
-76 143 -76 31 0 2391 787 2427 809 18 11 1207 1196 2643 2633 2570 2571 2612
2614 2648 2688 89 186 89 344 0 530 -35 72 -60 99 -603 641 -565 565 -566 566
-651 607 -47 22 -109 45 -138 51 -85 18 -198 13 -282 -12z m245 -376 c56 -27
1078 -1052 1100 -1103 20 -50 19 -104 -4 -153 -13 -28 -794 -815 -2592 -2612
l-2574 -2571 -949 -316 c-523 -174 -952 -314 -954 -311 -2 2 139 433 313 957
l317 953 2572 2572 c1699 1700 2583 2577 2606 2587 48 21 117 19 165 -3z"/>
<path d="M6040 7158 c-26 -13 -57 -41 -74 -65 -38 -54 -41 -141 -8 -194 11
-19 207 -219 434 -445 395 -394 415 -412 461 -422 147 -30 265 94 227 238 -11
40 -54 87 -423 458 -269 270 -426 419 -453 432 -53 26 -109 25 -164 -2z"/>
<path d="M1394 2511 c-80 -37 -124 -130 -103 -218 11 -45 37 -74 423 -461 226
-228 428 -422 448 -433 111 -57 255 14 273 136 15 99 21 92 -428 543 -269 270
-426 419 -453 432 -50 25 -107 25 -160 1z"/>
</g>
</svg>
